#!OML:ASF X:\für Bonn\!DataBase\2005_08_10_Bjorn_Final\c3d\bjorn.ASF
:FULLY-SPECIFIED
:DEGREES
142
root 1.04185 19.4191 2.76618 -183.539 -24.3196 -172.584
lowerback -9.55638 -3.14314 2.96131
upperback 5.16432 -5.10018 2.62528
thorax 10.9371 -2.42035 0.199226
lowerneck -5.33343 -0.488357 1.71122
upperneck 21.47 -0.876097 -6.54624
head 7.40379 -1.36175 -2.56747
rclavicle -5.80047e-014 5.1858e-014
rhumerus -31.875 -0.410302 -74.9659
rradius 29.0626
rwrist 12.8059
rhand -9.12256 13.0251
rfingers 7.12502
rthumb 16.8285 -16.2657
lclavicle -5.80047e-014 5.1858e-014
lhumerus -14.9425 -24.9422 82.7276
lradius 76.3329
lwrist 16.283
lhand -31.6704 -26.2143
lfingers 7.12502
lthumb -4.93047 3.7083
rfemur -25.0479 -13.9027 22.1745
rtibia 57.2744
rfoot -6.60345 1.41
rtoes -40.2122
lfemur -8.87525 16.2749 -10.9131
ltibia 27.4096
lfoot -1.28441 -35.7316
ltoes 21.6172
143
root 1.0159 19.3891 2.72016 -182.83 -23.4216 -172.997
lowerback -10.5838 -3.03396 3.24201
upperback 4.90102 -5.04062 2.77365
thorax 11.2501 -2.36387 0.159874
lowerneck -5.35579 -0.26466 1.47385
upperneck 21.3173 -0.469819 -6.92472
head 7.3757 -1.22185 -2.61825
rclavicle -2.83144e-014 4.70126e-014
rhumerus -30.5885 -1.53843 -74.4811
rradius 28.4099
rwrist 12.9281
rhand -9.70691 13.0722
rfingers 7.12502
rthumb 16.2659 -16.2655
lclavicle -2.83144e-014 4.70126e-014
lhumerus -16.6712 -26.1702 82.981
lradius 74.4575
lwrist 16.4374
lhand -31.2651 -25.7397
lfingers 7.12502
lthumb -4.53915 4.19164
rfemur -23.5494 -14.3938 21.9601
rtibia 55.0625
rfoot -7.32529 2.03338
rtoes -39.1166
lfemur -9.52721 17.6329 -11.2533
ltibia 28.1997
lfoot -1.29204 -36.364
ltoes 22.3516
144
root 0.991738 19.3534 2.67939 -182.204 -22.4413 -173.382
lowerback -11.4518 -2.87856 3.62323
upperback 4.65935 -4.93355 2.88151
thorax 11.4799 -2.27946 0.042079
lowerneck -5.2792 -0.0541636 1.27521
upperneck 20.9777 -0.0902596 -7.2572
head 7.26833 -1.07543 -2.65595
rclavicle 1.4387e-014 -2.84262e-014
rhumerus -29.3847 -2.80457 -74.0823
rradius 27.8022
rwrist 13.1098
rhand -10.2703 13.0825
rfingers 7.12502
rthumb 15.7234 -16.2987
lclavicle 1.4387e-014 -2.84262e-014
lhumerus -18.4515 -27.3696 83.3345
lradius 72.642
lwrist 16.366
lhand -30.7393 -25.1261
lfingers 7.12502
lthumb -4.0314 4.81549
rfemur -22.057 -14.8854 21.7326
rtibia 52.8716
rfoot -8.03569 2.81832
rtoes -37.3259
lfemur -10.1582 18.836 -11.5886
ltibia 29.0847
lfoot -1.6038 -36.788
ltoes 22.6786
145
root 0.968178 19.3123 2.64483 -181.629 -21.4257 -173.76
lowerback -12.1869 -2.71285 4.04104
upperback 4.4491 -4.82391 2.98306
thorax 11.6627 -2.1945 -0.0932242
lowerneck -5.33931 0.164611 1.04001
upperneck 20.6708 0.30083 -7.54027
head 7.19816 -0.921468 -2.67265
rclavicle -2.60905e-015 -1.23246e-014
rhumerus -28.1344 -4.25303 -73.7024
rradius 27.1392
rwrist 13.5153
rhand -10.7585 13.1296
rfingers 7.12502
rthumb 15.2531 -16.2881
lclavicle -2.60905e-015 -1.23246e-014
lhumerus -20.2333 -28.3461 83.8675
lradius 70.7868
lwrist 15.9466
lhand -30.1042 -24.4703
lfingers 7.12502
lthumb -3.41806 5.48206
rfemur -20.6259 -15.3876 21.4698
rtibia 50.7205
rfoot -8.79278 3.81491
rtoes -35.6311
lfemur -10.7908 19.8511 -11.949
ltibia 30.0277
lfoot -1.99531 -37.0303
ltoes 23.1127
146
root 0.946381 19.2644 2.61843 -181.098 -20.3543 -174.113
lowerback -12.7819 -2.53255 4.50475
upperback 4.2623 -4.7015 3.06171
thorax 11.7835 -2.10237 -0.267118
lowerneck -5.60041 0.411867 0.953749
upperneck 20.5591 0.725682 -7.87612
head 7.23004 -0.755441 -2.7362
rclavicle 5.07398e-014 4.29375e-014
rhumerus -26.8493 -5.90894 -73.3911
rradius 26.4346
rwrist 14.1012
rhand -11.188 13.1229
rfingers 7.12502
rthumb 14.8394 -16.3257
lclavicle 5.07398e-014 4.29375e-014
lhumerus -22.0105 -29.0626 84.4931
lradius 68.9215
lwrist 15.2408
lhand -29.2433 -23.9245
lfingers 7.12502
lthumb -2.58667 6.03957
rfemur -19.2962 -15.902 21.1942
rtibia 48.6216
rfoot -9.6951 5.06955
rtoes -33.8719
lfemur -11.4153 20.6394 -12.3284
ltibia 30.9832
lfoot -2.67126 -36.9899
ltoes 23.2008
147
root 0.926643 19.22 2.59671 -180.631 -19.3061 -174.478
lowerback -13.2403 -2.35142 4.95338
upperback 4.10217 -4.57014 3.11077
thorax 11.8528 -2.00819 -0.454765
lowerneck -6.00464 0.668182 0.887064
upperneck 20.6251 1.15099 -8.12654
head 7.34712 -0.590687 -2.77958
rclavicle -3.72721e-014 6.63941e-014
rhumerus -25.6215 -7.80011 -73.1328
rradius 25.7699
rwrist 14.9214
rhand -11.584 13.1101
rfingers 7.12502
rthumb 14.4578 -16.3662
lclavicle -3.72721e-014 6.63941e-014
lhumerus -23.7789 -29.555 85.2161
lradius 67.0304
lwrist 14.2293
lhand -28.2997 -23.5558
lfingers 7.12502
lthumb -1.67541 6.41738
rfemur -18.0113 -16.4819 20.8608
rtibia 46.5619
rfoot -10.6687 6.49871
rtoes -31.3372
lfemur -11.9669 21.1996 -12.7418
ltibia 31.8807
lfoot -3.50944 -36.7702
ltoes 23.1381
148
root 0.907945 19.182 2.57346 -180.18 -18.219 -174.834
lowerback -13.6886 -2.16027 5.39541
upperback 3.97199 -4.43204 3.15937
thorax 11.9529 -1.9114 -0.636469
lowerneck -6.37863 0.915245 0.827763
upperneck 20.6363 1.56301 -8.37025
head 7.44143 -0.428662 -2.82009
rclavicle 5.26779e-015 7.95139e-016
rhumerus -24.4181 -10.1388 -72.8579
rradius 25.1287
rwrist 16.1249
rhand -11.8578 13.1163
rfingers 7.12502
rthumb 14.194 -16.3788
lclavicle 5.26779e-015 7.95139e-016
lhumerus -25.4636 -29.8767 85.9734
lradius 65.1253
lwrist 13.134
lhand -27.2458 -23.3816
lfingers 7.12502
lthumb -0.657512 6.59712
rfemur -16.8428 -17.1028 20.5191
rtibia 44.5496
rfoot -11.655 8.07886
rtoes -28.1675
lfemur -12.4503 21.5849 -13.1724
ltibia 32.6749
lfoot -4.46188 -36.3265
ltoes 22.7548
149
root 0.894277 19.1503 2.5498 -179.794 -17.1554 -175.146
lowerback -14.0571 -1.98342 5.82484
upperback 3.85727 -4.31055 3.20589
thorax 12.0246 -1.82512 -0.812576
lowerneck -6.73952 1.17918 0.85094
upperneck 20.6946 1.98757 -8.62032
head 7.55129 -0.258825 -2.87582
rclavicle -3.25013e-014 2.14687e-014
rhumerus -23.3241 -12.9478 -72.6279
rradius 24.5596
rwrist 17.7734
rhand -12.0831 13.1652
rfingers 7.12502
rthumb 13.9769 -16.345
lclavicle -3.25013e-014 2.14687e-014
lhumerus -27.0255 -30.0825 86.7497
lradius 63.1076
lwrist 11.9585
lhand -26.2477 -23.382
lfingers 7.12502
lthumb 0.306489 6.59751
rfemur -15.7656 -17.7471 20.2028
rtibia 42.6079
rfoot -12.5713 9.73694
rtoes -24.913
lfemur -12.8036 21.8485 -13.5551
ltibia 33.3311
lfoot -5.68318 -35.7275
ltoes 21.9785
150
root 0.886574 19.1204 2.52761 -179.432 -16.0935 -175.472
lowerback -14.3544 -1.81453 6.14876
upperback 3.76665 -4.17896 3.25467
thorax 12.0903 -1.74251 -0.921222
lowerneck -7.02578 1.43033 0.976019
upperneck 20.6752 2.38693 -8.91506
head 7.62338 -0.0921669 -2.96251
rclavicle -3.08116e-014 -1.03368e-014
rhumerus -22.345 -15.6235 -72.5515
rradius 24.2211
rwrist 19.1443
rhand -12.24 13.125
rfingers 7.12502
rthumb 13.8257 -16.3955
lclavicle -3.08116e-014 -1.03368e-014
lhumerus -28.3716 -30.1735 87.5147
lradius 60.9333
lwrist 10.8102
lhand -25.2888 -23.654
lfingers 7.12502
lthumb 1.23263 6.32219
rfemur -14.8518 -18.3758 19.8851
rtibia 40.8124
rfoot -13.4191 11.3409
rtoes -21.9165
lfemur -13.0735 21.9407 -13.9533
ltibia 33.8303
lfoot -6.76823 -34.9453
ltoes 21.2492
